<?xml version="1.0" encoding="utf-8"?>
<svg xmlns="http://www.w3.org/2000/svg" xmlns:xlink="http://www.w3.org/1999/xlink" version= "1.1" width="100px" height="100px" viewBox="910 518 100 100">
<g id="layer1">
<g style="fill:rgb(70,72,72); fill-opacity:1.0; stroke-linejoin: miter">
<path d="M1008.70715,567.43414L1008.70715,567.43414C1008.70715,594.1616,987.04,615.8286,960.3127,615.8286L960.3127,615.8286C933.5851,615.8286,911.9182,594.1616,911.9182,567.43414L911.9182,567.43414C911.9182,540.70667,933.5851,519.0397,960.3127,519.0397L960.3127,519.0397C987.04004,519.0397,1008.70715,540.70667,1008.70715,567.43414L1008.70715,567.43414 M1007.2356,567.43414L1007.2356,567.43414C1007.2356,541.51953,986.22705,520.5112,960.3127,520.5112L960.3127,520.5112C934.3979,520.5112,913.3898,541.51953,913.3898,567.43414L913.3898,567.43414C913.3898,593.34875,934.3979,614.35706,960.3127,614.35706L960.3127,614.35706C986.2272,614.35706,1007.2356,593.34875,1007.2356,567.43414 Z"/>
</g>
<g style="fill:url(#grad0); fill-opacity:1.0; stroke-linejoin: miter">
<path d="M960.3127,520.4392C934.35785,520.4392,913.31775,541.4796,913.31775,567.43414C913.31775,593.3887,934.35785,614.4291,960.3127,614.4291C986.2671,614.4291,1007.3076,593.3887,1007.3076,567.43414C1007.3076,541.4796,986.2667,520.4392,960.3127,520.4392 Z"/>
</g>
</g>
<g id="layer2" opacity="0.02745098">
<g style="fill:rgb(109,109,109); fill-opacity:1.0; stroke-linejoin: miter">
</g>
<g style="fill:rgb(109,109,109); fill-opacity:1.0; stroke-linejoin: miter">
</g>
<g style="fill:rgb(109,109,109); fill-opacity:1.0; stroke-linejoin: miter">
<path d="M967.19244,604.1498L967.19244,604.15076Q967.28546,604.2172,967.39886,604.27325Q967.4555,604.3013,967.51733,604.3268Q967.5792,604.35223,967.64606,604.3752L967.7143,604.39746Q967.60004,604.3614,967.4974,604.3071Q967.42883,604.27094,967.36597,604.2278Q967.3346,604.20624,967.3046,604.18286L967.31433,604.18384L967.2021,604.1498L967.19244,604.15076"/>
</g>
<g style="fill:rgb(109,109,109); fill-opacity:1.0; stroke-linejoin: miter">
<path d="M922.36273,585.75214L925.88727,589.702Q926.67487,591.9833,930.94165,598.4003Q931.2962,598.6697,931.48413,598.6398Q932.6199,599.8049,936.00885,601.96643Q936.13074,601.87805,938.04047,602.67456L944.1836,605.5516L948.627,606.96893L956.9047,608.4365L964.82544,609.31116L968.38306,608.65094L975.7644,606.2295L973.9017,605.51056L968.42786,604.4278Q965.9528,604.92633,955.54626,603.9253Q952.1171,603.3535,950.58234,603.00793L947.149,601.8141Q945.6946,601.2477,943.911,600.236Q943.5528,599.87933,943.4866,599.69824Q936.756,597.2799,934.7326,595.86865Q933.2216,594.85785,932.81824,594.46967L928.3713,590.3335Q925.7318,587.8589,925.2134,586.84845L922.36273,585.75214 Z"/>
</g>
<g style="fill:rgb(109,109,109); fill-opacity:1.0; stroke-linejoin: miter">
<path d="M927.3675,589.8893L927.3802,589.92206Q927.3992,589.9723,927.52515,590.1816Q927.6689,590.41516,927.8215,590.64667L928.8135,591.7007L927.37683,589.8893L927.3675,589.89026"/>
</g>
<g style="fill:rgb(109,109,109); fill-opacity:1.0; stroke-linejoin: miter">
<path d="M928.86346,591.76355L928.86346,591.7645L928.86383,591.7655L928.8642,591.7645L928.8642,591.76544L928.8642,591.7645L928.86346,591.76355"/>
</g>
<g style="fill:rgb(109,109,109); fill-opacity:1.0; stroke-linejoin: miter">
<path d="M928.8727,591.7636L928.8684,591.76404Q928.862,591.7643,928.86414,591.7655L929.80566,592.9514L928.96857,591.86554L928.8727,591.7636 Z"/>
</g>
<g style="fill:rgb(109,109,109); fill-opacity:1.0; stroke-linejoin: miter">
<path d="M927.85547,591.36633L927.85547,591.3673L927.8558,591.3683L927.8561,591.3673L927.8561,591.3682L927.8561,591.3673L927.85547,591.36633"/>
</g>
<g style="fill:rgb(109,109,109); fill-opacity:1.0; stroke-linejoin: miter">
<path d="M927.86475,591.3664L927.8604,591.3668Q927.8539,591.36707,927.8561,591.3683L928.06085,591.66394L928.7441,592.51996L927.86475,591.3664 Z"/>
</g>
<g style="fill:rgb(109,109,109); fill-opacity:1.0; stroke-linejoin: miter">
<path d="M925.59863,588.3933L926.2223,589.2116L926.84607,590.02997L926.84796,590.03094L926.7301,589.85675L926.6156,589.69275Q926.5029,589.5337,926.39685,589.3947L925.59863,588.3933"/>
</g>
<g style="fill:rgb(109,109,109); fill-opacity:1.0; stroke-linejoin: miter">
<path d="M927.1841,590.4733L927.4752,590.85535L927.6208,591.0464L927.76636,591.2373L927.637,591.0498L927.1841,590.4733"/>
</g>
<g style="fill:rgb(109,109,109); fill-opacity:1.0; stroke-linejoin: miter">
<path d="M925.16125,588.1317L925.2376,588.2553Q925.67914,588.9795,926.03357,589.4832Q927.5998,591.35406,928.3819,592.46735L929.2576,593.512L925.16125,588.1317 Z"/>
</g>
<g style="fill:rgb(109,109,109); fill-opacity:1.0; stroke-linejoin: miter">
<path d="M924.9142,587.94226L925.07025,588.2233L925.5222,589.017Q925.58307,589.1245,925.6805,589.265Q926.703,590.64355,927.343,591.3856L928.11536,592.41705Q928.2608,592.59906,928.4375,592.7774L924.92334,587.94226L924.9142,587.94226"/>
</g>
<g style="fill:rgb(109,109,109); fill-opacity:1.0; stroke-linejoin: miter">
<path d="M924.5508,588.2353L924.76465,588.5708Q924.99066,588.9516,926.2701,590.64136Q927.0557,591.6694,928.1599,593.01984L924.5601,588.2353L924.5508,588.2353 Z"/>
</g>
<g style="fill:rgb(109,109,109); fill-opacity:1.0; stroke-linejoin: miter">
<path d="M925.5726,589.0732L925.59106,589.1039Q925.8011,589.44147,926.3733,590.25385L926.9714,591.06085L927.8497,592.26697L927.8589,592.26794L925.5818,589.0732L925.5726,589.0732 Z"/>
</g>
<g style="fill:rgb(109,109,109); fill-opacity:1.0; stroke-linejoin: miter">
<path d="M924.9793,587.7963L924.9658,587.79877Q924.91925,587.8147,924.9915,587.93005L925.9464,589.2938Q926.0589,589.45374,926.2463,589.69293Q927.23004,590.918,928.4757,592.33875L925.1408,587.84827Q925.02454,587.7933,924.9793,587.7963"/>
</g>
<g style="fill:rgb(109,109,109); fill-opacity:1.0; stroke-linejoin: miter">
<path d="M924.70776,588.2503L924.69855,588.2513Q924.98505,588.7133,925.84753,589.73584Q926.1407,590.1015,926.8687,590.80096Q926.4878,590.3808,926.107,589.96045L924.70776,588.2503 Z"/>
</g>
<g style="fill:rgb(109,109,109); fill-opacity:1.0; stroke-linejoin: miter">
<path d="M924.67114,588.20544L924.67096,588.20593L924.67065,588.2064Q924.67126,588.2069,924.6719,588.2074L924.6716,588.2064L924.67114,588.20544"/>
</g>
<g style="fill:rgb(109,109,109); fill-opacity:1.0; stroke-linejoin: miter">
<path d="M927.17755,589.79956L927.17755,589.8L927.17755,589.80054L927.178,589.8005L927.17847,589.8004L927.17847,589.8014L927.178,589.8005L927.17755,589.79956"/>
</g>
<g style="fill:rgb(109,109,109); fill-opacity:1.0; stroke-linejoin: miter">
<path d="M927.1918,589.8041L927.1833,589.80493Q927.8497,590.4333,928.2712,590.7906Q928.6152,591.0796,928.71326,591.08875Q928.7236,591.08777,928.7272,591.08344Q928.18713,590.67395,927.1918,589.8041 Z"/>
</g>
<g style="fill:rgb(109,109,109); fill-opacity:1.0; stroke-linejoin: miter">
<path d="M927.1824,589.8041L927.1824,589.8045L927.1824,589.80505L927.18286,589.805L927.1833,589.80493L927.1833,589.8059L927.18286,589.805L927.1824,589.8041"/>
</g>
<g style="fill:rgb(109,109,109); fill-opacity:1.0; stroke-linejoin: miter">
<path d="M927.1867,589.79956L927.1826,589.8L927.1785,589.8004L927.1831,589.8009L927.18774,589.8014L927.18744,589.80084Q927.1874,589.8005,927.1873,589.80035L927.1869,589.7997L927.1867,589.79956"/>
</g>
<g style="fill:rgb(109,109,109); fill-opacity:1.0; stroke-linejoin: miter">
<path d="M925.49036,588.22766L925.4897,588.2278L925.48895,588.2279L925.4883,588.228L925.4876,588.22815L925.4874,588.2291L925.4873,588.2282L925.4873,588.2292L925.48883,588.2289L925.49036,588.22864L925.49036,588.22766 Z"/>
</g>
<g style="fill:rgb(109,109,109); fill-opacity:1.0; stroke-linejoin: miter">
<path d="M925.4838,588.22766L925.4839,588.2277L925.4839,588.2278L925.484,588.22784L925.4841,588.2279L925.48413,588.2284L925.48413,588.2289L925.48413,588.22797L925.4842,588.228L925.48425,588.22815L925.4845,588.2284L925.4846,588.2289L925.4847,588.2294L925.48474,588.22894L925.48474,588.2285L925.4848,588.2286L925.48486,588.22864L925.4852,588.2286L925.48553,588.2285L925.48566,588.2295L925.4858,588.22845L925.4858,588.22943L925.4857,588.2289L925.4856,588.2284L925.48474,588.228L925.4838,588.22766 Z"/>
</g>
<g style="fill:rgb(109,109,109); fill-opacity:1.0; stroke-linejoin: miter">
<path d="M925.4873,588.2282L925.4871,588.2292L925.4869,588.2283L925.4867,588.22925L925.48663,588.22833L925.4864,588.2293L925.4863,588.2284L925.4859,588.2294L925.4857,588.22845L925.4857,588.22943L925.4865,588.2293L925.4873,588.2292L925.4873,588.2282"/>
</g>
<g style="fill:rgb(109,109,109); fill-opacity:1.0; stroke-linejoin: miter">
<path d="M924.60815,587.4679L924.6061,587.4689Q924.5323,587.5268,924.57526,587.5883Q924.5674,587.59143,925.00446,588.20557Q925.9524,589.5248,927.24677,591.14545L926.92053,590.85706L927.8023,591.8141L927.3035,591.21515L927.3408,591.22925L925.5364,588.30237L927.03894,589.6684Q926.45703,589.1264,925.8448,588.46277Q925.6275,588.2341,925.03217,587.4694L925.0229,587.47034L925.4882,588.2241L925.4801,588.22504L924.916,587.6814Q924.63525,587.4499,924.60815,587.4679 Z"/>
</g>
<g style="fill:rgb(109,109,109); fill-opacity:1.0; stroke-linejoin: miter">
<path d="M924.5189,588.0424L924.5189,588.0434L924.5194,588.04333L924.51984,588.0433L924.51984,588.04425L924.51984,588.0433L924.5194,588.04285L924.5189,588.0424"/>
</g>
<g style="fill:rgb(109,109,109); fill-opacity:1.0; stroke-linejoin: miter">
<path d="M924.5282,588.0424L924.5261,588.0426L924.524,588.0428L924.522,588.04297L924.5199,588.0433L924.5245,588.04376L924.52905,588.04425Q924.529,588.0438,924.52893,588.0437Q924.5288,588.0436,924.5285,588.0428L924.5284,588.04266Q924.52826,588.04254,924.5282,588.0424"/>
</g>
<g style="fill:rgb(109,109,109); fill-opacity:1.0; stroke-linejoin: miter">
<path d="M924.5215,588.04474L924.5215,588.0452L924.5215,588.0457Q924.5219,588.04565,924.5224,588.0456L924.5224,588.0466Q924.5219,588.04565,924.5215,588.04474"/>
</g>
<g style="fill:rgb(109,109,109); fill-opacity:1.0; stroke-linejoin: miter">
<path d="M924.5306,588.04474L924.5265,588.04517L924.5224,588.04565L924.5224,588.0466Q924.52637,588.0501,924.53046,588.0535L924.53876,588.06165Q924.58215,588.1046,924.5856,588.1088Q924.5887,588.1094,924.5918,588.1098Q924.5797,588.0938,924.5674,588.0805Q924.56116,588.0731,924.5306,588.04474 Z"/>
</g>
<g style="fill:rgb(109,109,109); fill-opacity:1.0; stroke-linejoin: miter">
<path d="M924.74725,587.5926L924.7252,587.59454Q924.6719,587.62256,924.6847,587.6525L924.82605,587.97656Q924.88635,588.1192,925.3608,588.85846Q925.78766,589.33185,927.8393,592.1394L924.78406,587.59595L924.74725,587.5926 Z"/>
</g>
<g style="fill:rgb(109,109,109); fill-opacity:1.0; stroke-linejoin: miter">
<path d="M928.2792,592.7922L928.40155,592.97424L930.371,595.9024L930.3772,595.9034L929.7826,594.9891L929.05835,593.896Q928.3521,592.8506,928.2792,592.7922 Z"/>
</g>
<g style="fill:rgb(109,109,109); fill-opacity:1.0; stroke-linejoin: miter">
<path d="M923.8916,586.60254L925.04333,589.30786Q925.4511,590.0776,927.09674,592.31964Q928.0755,593.592,928.2124,593.7202Q928.54755,594.10815,928.8337,594.39087L923.8916,586.60254"/>
</g>
<g style="fill:rgb(109,109,109); fill-opacity:1.0; stroke-linejoin: miter">
<path d="M923.4376,586.7667L923.44464,586.8085Q923.4843,586.9893,923.7079,587.39087Q924.29724,588.16504,924.57574,588.7236Q926.3866,591.11945,927.4041,592.6486L929.74915,595.48114L923.4376,586.7667"/>
</g>
<g style="fill:rgb(109,109,109); fill-opacity:1.0; stroke-linejoin: miter">
<path d="M946.3135,605.4658L946.3122,605.4781Q946.32294,605.5333,946.5881,605.68884Q947.07526,605.94684,948.026,606.3318L948.4566,606.4942L952.77124,607.9769L953.4344,608.3075L953.84015,608.3959Q954.2151,608.40027,954.7128,608.43787Q955.62616,608.5151,956.1492,608.5837Q957.1882,608.7677,958.1983,608.96686Q958.66437,609.06256,958.5647,609.0662Q959.00946,609.1432,959.21295,609.143Q959.22253,609.1552,960.7175,609.0267Q960.9464,609.0668,961.98444,608.99115L965.2178,608.4432L946.3135,605.4658"/>
</g>
<g style="fill:rgb(109,109,109); fill-opacity:1.0; stroke-linejoin: miter">
<path d="M946.5149,605.9814L946.50116,605.98724Q946.44653,606.0166,946.5944,606.08575Q946.8138,606.2062,947.4874,606.4892L947.9455,606.75195Q948.6215,607.01935,949.4257,607.2543L950.68085,607.4839L951.7908,607.6269Q952.84406,607.7063,952.82855,607.6988Q953.20734,607.6871,953.7843,607.7001Q954.45526,607.6793,954.6199,607.6689L946.5149,605.9814"/>
</g>
</g>
<g id="layer3">
<g style="fill:rgb(71,72,72); fill-opacity:0.4862745; stroke-linejoin: miter">
<path d="M1002.51556,567.5028L1002.51556,567.5028C1002.51556,590.7415,983.67694,609.58014,960.43823,609.58014L960.43823,609.58014C937.1996,609.58014,918.36096,590.7415,918.36096,567.5028L918.36096,567.5028C918.36096,544.26416,937.1996,525.42554,960.43823,525.42554L960.43823,525.42554C983.67694,525.42554,1002.51556,544.26416,1002.51556,567.5028L1002.51556,567.5028 M1001.7827,567.5028L1001.7827,567.5028C1001.7827,544.6689,983.27216,526.1583,960.43823,526.1583L960.43823,526.1583C937.6043,526.1583,919.0938,544.6689,919.0938,567.5028L919.0938,567.5028C919.0938,590.33673,937.6043,608.8473,960.43823,608.8473L960.43823,608.8473C983.27216,608.8473,1001.7827,590.33673,1001.7827,567.5028 Z"/>
</g>
</g>
<g id="layer4" opacity="0.3882353">
<g style="fill:rgb(109,109,109); fill-opacity:0.6313726; stroke-linejoin: miter">
<path d="M981.8578,567.6314L981.8578,567.6314C981.8578,579.44385,972.28204,589.0194,960.4697,589.0194L960.4697,589.0194C948.6575,589.0194,939.0817,579.44385,939.0817,567.6314L939.0817,567.6314C939.0817,555.819,948.6575,546.2434,960.4697,546.2434L960.4697,546.2434C972.28204,546.2434,981.8578,555.819,981.8578,567.6314L981.8578,567.6314 M981.4772,567.6314L981.4772,567.6314C981.4772,556.0293,972.0718,546.624,960.4697,546.624L960.4697,546.624C948.86774,546.624,939.46234,556.0293,939.46234,567.6314L939.46234,567.6314C939.46234,579.2335,948.86774,588.6388,960.4697,588.6388L960.4697,588.6388C972.0718,588.6388,981.4772,579.2335,981.4772,567.6314 Z"/>
</g>
</g>
<g id="layer5">
<g style="fill:rgb(109,109,109); fill-opacity:0.19215687; stroke-linejoin: miter">
<path d="M983.6385,567.7573L983.6385,567.7573C983.6385,580.6135,973.21643,591.0356,960.3602,591.0356L960.3602,591.0356C947.504,591.0356,937.082,580.6135,937.082,567.7573L937.082,567.7573C937.082,554.9011,947.504,544.47906,960.3602,544.47906L960.3602,544.47906C973.21643,544.47906,983.6385,554.9011,983.6385,567.7573L983.6385,567.7573 M982.9993,567.7573L982.9993,567.7573C982.9993,555.25415,972.8634,545.1182,960.3602,545.1182L960.3602,545.1182C947.85706,545.1182,937.7211,555.25415,937.7211,567.7573L937.7211,567.7573C937.7211,580.2605,947.85706,590.3964,960.3602,590.3964L960.3602,590.3964C972.8634,590.3964,982.9993,580.2605,982.9993,567.7573 Z"/>
</g>
</g>
<g id="layer6">
<g style="fill:rgb(109,109,109); fill-opacity:0.0627451; stroke-linejoin: miter">
</g>
<g style="fill:rgb(109,109,109); fill-opacity:0.0627451; stroke-linejoin: miter">
<path d="M958.8848,546.63153L958.581,546.6564Q958.4757,546.6073,956.74164,547.04865L951.12067,548.64264L949.2387,549.52924L948.16644,550.2926L951.0776,549.8764L953.3058,549.32697Q955.97406,549.0929,957.8803,549.119Q961.9897,549.79474,962.76495,550.04456Q963.56036,550.2642,967.2498,551.86505Q968.0697,551.83636,968.5431,552.0934L970.431,553.46533Q970.93353,553.59534,971.23413,553.7957L972.9672,555.1384Q975.05133,557.00555,976.62616,558.85974Q977.5634,559.95856,977.9111,561.0708Q979.81213,563.58264,980.0015,563.972Q980.6665,565.17053,981.44934,567.0402L981.72626,566.354Q981.6446,565.4275,981.76556,565.23047Q981.76227,564.8827,981.6796,565.52014L981.4492,562.7196Q980.1579,559.4257,979.2886,558.1859Q979.10785,557.7851,979.37274,557.1527Q977.1665,554.447,975.42957,552.6004Q970.0477,547.42505,958.8848,546.63153 Z"/>
</g>
<g style="fill:rgb(109,109,109); fill-opacity:0.0627451; stroke-linejoin: miter">
</g>
<g style="fill:rgb(109,109,109); fill-opacity:0.0627451; stroke-linejoin: miter">
</g>
<g style="fill:rgb(109,109,109); fill-opacity:0.0627451; stroke-linejoin: miter">
</g>
<g style="fill:rgb(109,109,109); fill-opacity:0.0627451; stroke-linejoin: miter">
<path d="M951.39777,549.8531L951.1608,549.8648Q951.15497,549.86536,951.1311,549.8679Q951.0963,549.87225,951.0974,549.87225L951.08307,549.8745L951.0914,549.8755L951.39777,549.8531"/>
</g>
<g style="fill:rgb(109,109,109); fill-opacity:0.0627451; stroke-linejoin: miter">
</g>
<g style="fill:rgb(109,109,109); fill-opacity:0.0627451; stroke-linejoin: miter">
</g>
<g style="fill:rgb(254,152,0); fill-opacity:0.5647059; stroke-linejoin: miter">
<path d="M1005.30084,567.3683L1005.30084,567.3683C1005.30084,592.128,985.22943,612.1994,960.4697,612.1994L960.4697,612.1994C935.71014,612.1994,915.63855,592.128,915.63855,567.3683L915.63855,567.3683C915.63855,542.6087,935.71014,522.5371,960.4697,522.5371L960.4697,522.5371C985.22943,522.5371,1005.30084,542.6087,1005.30084,567.3683L1005.30084,567.3683 M1003.6291,567.3683L1003.6291,567.3683C1003.6291,543.53204,984.3061,524.20886,960.4697,524.20886L960.4697,524.20886C936.6335,524.20886,917.3103,543.53204,917.3103,567.3683L917.3103,567.3683C917.3103,591.20465,936.6335,610.52765,960.4697,610.52765L960.4697,610.52765C984.3061,610.52765,1003.6291,591.20465,1003.6291,567.3683 Z"/>
</g>
</g>
<defs>
<linearGradient id="grad0" gradientUnits="userSpaceOnUse" x1="962.0073" y1="562.85443" x2="1066.9617" y2="343.45178" >
<stop offset="0.0%" style="stop-color:rgb(254,254,254); stop-opacity:1.0" />
<stop offset="0.0%" style="stop-color:rgb(254,254,254); stop-opacity:1.0" />
<stop offset="0.0%" style="stop-color:rgb(254,254,254); stop-opacity:1.0" />
<stop offset="100.0%" style="stop-color:rgb(0,0,0); stop-opacity:1.0" />
</linearGradient>
</defs>
</svg>