<svg xmlns="http://www.w3.org/2000/svg" xmlns:xlink="http://www.w3.org/1999/xlink" width="300" zoomAndPan="magnify" viewBox="0 0 224.87999 225" height="300" preserveAspectRatio="xMidYMid meet" version="1.0"><defs><g/><clipPath id="1ff9f340c3"><path d="M 46.472656 86.699219 L 87.636719 86.699219 L 87.636719 142.660156 L 46.472656 142.660156 Z M 46.472656 86.699219 " clip-rule="nonzero"/></clipPath><clipPath id="bccf3cbb0f"><path d="M 56.964844 86.699219 L 77.144531 86.699219 C 82.941406 86.699219 87.636719 91.398438 87.636719 97.195312 L 87.636719 132.023438 C 87.636719 137.820312 82.941406 142.515625 77.144531 142.515625 L 56.964844 142.515625 C 51.171875 142.515625 46.472656 137.820312 46.472656 132.023438 L 46.472656 97.195312 C 46.472656 91.398438 51.171875 86.699219 56.964844 86.699219 Z M 56.964844 86.699219 " clip-rule="nonzero"/></clipPath><clipPath id="93f9cf3c5b"><path d="M 0.472656 0.699219 L 41.636719 0.699219 L 41.636719 56.542969 L 0.472656 56.542969 Z M 0.472656 0.699219 " clip-rule="nonzero"/></clipPath><clipPath id="b39e38ddc7"><path d="M 10.964844 0.699219 L 31.144531 0.699219 C 36.941406 0.699219 41.636719 5.398438 41.636719 11.195312 L 41.636719 46.023438 C 41.636719 51.820312 36.941406 56.515625 31.144531 56.515625 L 10.964844 56.515625 C 5.171875 56.515625 0.472656 51.820312 0.472656 46.023438 L 0.472656 11.195312 C 0.472656 5.398438 5.171875 0.699219 10.964844 0.699219 Z M 10.964844 0.699219 " clip-rule="nonzero"/></clipPath><clipPath id="38226387e7"><rect x="0" width="42" y="0" height="57"/></clipPath><clipPath id="db39401024"><rect x="0" width="28" y="0" height="79"/></clipPath><clipPath id="2e9169d29a"><path d="M 39.585938 86.703125 L 94.746094 86.703125 L 94.746094 145.917969 L 39.585938 145.917969 Z M 39.585938 86.703125 " clip-rule="nonzero"/></clipPath><clipPath id="3b78a5a71c"><path d="M 47.082031 86.703125 L 87.222656 86.703125 C 91.363281 86.703125 94.71875 90.058594 94.71875 94.199219 L 94.71875 138.195312 C 94.71875 142.335938 91.363281 145.691406 87.222656 145.691406 L 47.082031 145.691406 C 42.941406 145.691406 39.585938 142.335938 39.585938 138.195312 L 39.585938 94.199219 C 39.585938 90.058594 42.941406 86.703125 47.082031 86.703125 Z M 47.082031 86.703125 " clip-rule="nonzero"/></clipPath><clipPath id="822a35190b"><path d="M 41.816406 76.3125 L 91.222656 76.3125 L 91.222656 101.816406 L 41.816406 101.816406 Z M 41.816406 76.3125 " clip-rule="nonzero"/></clipPath><clipPath id="cab1d158ce"><path d="M 66.46875 76.3125 C 52.851562 76.3125 41.816406 82.023438 41.816406 89.0625 C 41.816406 96.105469 52.851562 101.816406 66.46875 101.816406 C 80.085938 101.816406 91.125 96.105469 91.125 89.0625 C 91.125 82.023438 80.085938 76.3125 66.46875 76.3125 Z M 66.46875 76.3125 " clip-rule="nonzero"/></clipPath><clipPath id="e21ea193c6"><path d="M 0.816406 0.3125 L 50.152344 0.3125 L 50.152344 25.816406 L 0.816406 25.816406 Z M 0.816406 0.3125 " clip-rule="nonzero"/></clipPath><clipPath id="61977a81ff"><path d="M 25.46875 0.3125 C 11.851562 0.3125 0.816406 6.023438 0.816406 13.0625 C 0.816406 20.105469 11.851562 25.816406 25.46875 25.816406 C 39.085938 25.816406 50.125 20.105469 50.125 13.0625 C 50.125 6.023438 39.085938 0.3125 25.46875 0.3125 Z M 25.46875 0.3125 " clip-rule="nonzero"/></clipPath><clipPath id="21da8c5789"><rect x="0" width="51" y="0" height="26"/></clipPath><clipPath id="10e400b4b3"><path d="M 41.816406 81.96875 L 92.296875 81.96875 L 92.296875 103.507812 L 41.816406 103.507812 Z M 41.816406 81.96875 " clip-rule="nonzero"/></clipPath><clipPath id="b2ddd54a9a"><path d="M 67.054688 81.96875 C 53.113281 81.96875 41.816406 86.789062 41.816406 92.738281 C 41.816406 98.6875 53.113281 103.507812 67.054688 103.507812 C 80.996094 103.507812 92.296875 98.6875 92.296875 92.738281 C 92.296875 86.789062 80.996094 81.96875 67.054688 81.96875 Z M 67.054688 81.96875 " clip-rule="nonzero"/></clipPath><clipPath id="654fc401f4"><path d="M 0.816406 0.96875 L 51.296875 0.96875 L 51.296875 22.507812 L 0.816406 22.507812 Z M 0.816406 0.96875 " clip-rule="nonzero"/></clipPath><clipPath id="3753a451e2"><path d="M 26.054688 0.96875 C 12.113281 0.96875 0.816406 5.789062 0.816406 11.738281 C 0.816406 17.6875 12.113281 22.507812 26.054688 22.507812 C 39.996094 22.507812 51.296875 17.6875 51.296875 11.738281 C 51.296875 5.789062 39.996094 0.96875 26.054688 0.96875 Z M 26.054688 0.96875 " clip-rule="nonzero"/></clipPath><clipPath id="999f15173e"><rect x="0" width="52" y="0" height="23"/></clipPath><clipPath id="168299710d"><path d="M 39.585938 73.816406 L 94.992188 73.816406 L 94.992188 106.675781 L 39.585938 106.675781 Z M 39.585938 73.816406 " clip-rule="nonzero"/></clipPath><clipPath id="aea9f81267"><path d="M 67.152344 73.816406 C 51.929688 73.816406 39.585938 81.113281 39.585938 90.117188 C 39.585938 99.121094 51.929688 106.421875 67.152344 106.421875 C 82.375 106.421875 94.71875 99.121094 94.71875 90.117188 C 94.71875 81.113281 82.375 73.816406 67.152344 73.816406 Z M 67.152344 73.816406 " clip-rule="nonzero"/></clipPath><clipPath id="4e3c602096"><rect x="0" width="85" y="0" height="90"/></clipPath><clipPath id="8b1eb72d71"><rect x="0" width="28" y="0" height="79"/></clipPath><clipPath id="db3ccd62c3"><path d="M 52 0.0585938 L 82 0.0585938 L 82 89 L 52 89 Z M 52 0.0585938 " clip-rule="nonzero"/></clipPath><clipPath id="10aec1fe73"><rect x="0" width="30" y="0" height="89"/></clipPath></defs><g clip-path="url(#1ff9f340c3)"><g clip-path="url(#bccf3cbb0f)"><g transform="matrix(1, 0, 0, 1, 46, 86)"><g clip-path="url(#38226387e7)"><g clip-path="url(#93f9cf3c5b)"><g clip-path="url(#b39e38ddc7)"><path fill="#ffffff" d="M 0.472656 0.699219 L 41.636719 0.699219 L 41.636719 56.5 L 0.472656 56.5 Z M 0.472656 0.699219 " fill-opacity="1" fill-rule="nonzero"/></g></g></g></g></g></g><path stroke-linecap="butt" transform="matrix(0, 0.7496, -0.7496, 0, 55.454456, 97.33893)" fill="none" stroke-linejoin="miter" d="M 0.0012184 9.501634 L 60.272952 9.501634 " stroke="#ff751f" stroke-width="19" stroke-opacity="1" stroke-miterlimit="4"/><path stroke-linecap="butt" transform="matrix(0, 0.7496, -0.7496, 0, 94.067471, 97.153404)" fill="none" stroke-linejoin="miter" d="M -0.00141423 9.50128 L 60.520453 9.50128 " stroke="#ff751f" stroke-width="19" stroke-opacity="1" stroke-miterlimit="4"/><g transform="matrix(1, 0, 0, 1, 16, 78)"><g clip-path="url(#db39401024)"><g fill="#171514" fill-opacity="1"><g transform="translate(0.934037, 59.768879)"><g><path d="M 13.53125 0.421875 C 9.28125 0.421875 6.21875 -0.65625 4.34375 -2.8125 C 2.46875 -4.96875 1.53125 -8.273438 1.53125 -12.734375 L 1.53125 -24.734375 C 1.53125 -28.085938 1.894531 -30.816406 2.625 -32.921875 C 3.351562 -35.023438 4.570312 -36.609375 6.28125 -37.671875 C 8 -38.734375 10.378906 -39.265625 13.421875 -39.265625 C 16.742188 -39.265625 19.445312 -38.394531 21.53125 -36.65625 C 23.625 -34.925781 24.671875 -32.503906 24.671875 -29.390625 L 24.671875 -23.453125 L 15.234375 -23.453125 L 15.234375 -28.921875 C 15.234375 -29.941406 15.085938 -30.726562 14.796875 -31.28125 C 14.515625 -31.832031 13.96875 -32.109375 13.15625 -32.109375 C 11.632812 -32.109375 10.875 -31.023438 10.875 -28.859375 L 10.875 -10.03125 C 10.875 -9.144531 11.054688 -8.390625 11.421875 -7.765625 C 11.796875 -7.148438 12.359375 -6.84375 13.109375 -6.84375 C 13.847656 -6.84375 14.398438 -7.144531 14.765625 -7.75 C 15.140625 -8.351562 15.3125 -9.128906 15.28125 -10.078125 L 15.234375 -16.609375 L 24.671875 -16.609375 L 24.671875 -9.8125 C 24.671875 -6.632812 23.632812 -4.132812 21.5625 -2.3125 C 19.5 -0.488281 16.820312 0.421875 13.53125 0.421875 Z M 13.53125 0.421875 "/></g></g></g></g></g><g clip-path="url(#2e9169d29a)"><g clip-path="url(#3b78a5a71c)"><path stroke-linecap="butt" transform="matrix(0.7496, 0, 0, 0.7496, 39.586881, 86.70401)" fill="none" stroke-linejoin="miter" d="M 9.998866 -0.00118001 L 63.54826 -0.00118001 C 69.07204 -0.00118001 73.548386 4.475166 73.548386 9.998945 L 73.548386 68.691708 C 73.548386 74.215487 69.07204 78.691833 63.54826 78.691833 L 9.998866 78.691833 C 4.475087 78.691833 -0.00125915 74.215487 -0.00125915 68.691708 L -0.00125915 9.998945 C -0.00125915 4.475166 4.475087 -0.00118001 9.998866 -0.00118001 Z M 9.998866 -0.00118001 " stroke="#151515" stroke-width="8" stroke-opacity="1" stroke-miterlimit="4"/></g></g><g clip-path="url(#822a35190b)"><g clip-path="url(#cab1d158ce)"><g transform="matrix(1, 0, 0, 1, 41, 76)"><g clip-path="url(#21da8c5789)"><g clip-path="url(#e21ea193c6)"><g clip-path="url(#61977a81ff)"><path fill="#ffffff" d="M 0.816406 0.3125 L 50.125 0.3125 L 50.125 25.816406 L 0.816406 25.816406 Z M 0.816406 0.3125 " fill-opacity="1" fill-rule="nonzero"/></g></g></g></g></g></g><g clip-path="url(#10e400b4b3)"><g clip-path="url(#b2ddd54a9a)"><g transform="matrix(1, 0, 0, 1, 41, 81)"><g clip-path="url(#999f15173e)"><g clip-path="url(#654fc401f4)"><g clip-path="url(#3753a451e2)"><path fill="#7a2f00" d="M 0.816406 0.96875 L 51.296875 0.96875 L 51.296875 22.507812 L 0.816406 22.507812 Z M 0.816406 0.96875 " fill-opacity="1" fill-rule="nonzero"/></g></g></g></g></g></g><g clip-path="url(#168299710d)"><g clip-path="url(#aea9f81267)"><path stroke-linecap="butt" transform="matrix(0.7496, 0, 0, 0.7496, 39.586881, 73.815671)" fill="none" stroke-linejoin="miter" d="M 36.773566 0.000980459 C 16.465858 0.000980459 -0.00125915 9.73534 -0.00125915 21.746955 C -0.00125915 33.758571 16.465858 43.498141 36.773566 43.498141 C 57.081273 43.498141 73.54839 33.758571 73.54839 21.746955 C 73.54839 9.73534 57.081273 0.000980459 36.773566 0.000980459 Z M 36.773566 0.000980459 " stroke="#151515" stroke-width="10" stroke-opacity="1" stroke-miterlimit="4"/></g></g><path stroke-linecap="butt" transform="matrix(0.7496, 0, 0, 0.7496, 42.986752, 110.95209)" fill="none" stroke-linejoin="miter" d="M 0.00203983 6.999906 L 64.218586 6.999906 " stroke="#ff751f" stroke-width="14" stroke-opacity="1" stroke-miterlimit="4"/><g transform="matrix(1, 0, 0, 1, 96, 72)"><g clip-path="url(#4e3c602096)"><g fill="#ff751f" fill-opacity="1"><g transform="translate(0.511804, 68.78902)"><g><path d="M 14.84375 0.484375 C 10.613281 0.484375 7.394531 -0.804688 5.1875 -3.390625 C 2.988281 -5.972656 1.890625 -9.609375 1.890625 -14.296875 L 1.890625 -39.296875 C 1.890625 -43.816406 2.988281 -47.226562 5.1875 -49.53125 C 7.394531 -51.832031 10.613281 -52.984375 14.84375 -52.984375 C 19.082031 -52.984375 22.300781 -51.832031 24.5 -49.53125 C 26.707031 -47.226562 27.8125 -43.816406 27.8125 -39.296875 L 27.8125 -14.296875 C 27.8125 -9.566406 26.707031 -5.921875 24.5 -3.359375 C 22.300781 -0.796875 19.082031 0.484375 14.84375 0.484375 Z M 14.84375 -9.171875 C 15.78125 -9.171875 16.410156 -9.578125 16.734375 -10.390625 C 17.066406 -11.203125 17.234375 -12.34375 17.234375 -13.8125 L 17.234375 -39.484375 C 17.234375 -40.617188 17.078125 -41.539062 16.765625 -42.25 C 16.460938 -42.96875 15.84375 -43.328125 14.90625 -43.328125 C 13.15625 -43.328125 12.28125 -42.003906 12.28125 -39.359375 L 12.28125 -13.75 C 12.28125 -12.238281 12.460938 -11.097656 12.828125 -10.328125 C 13.203125 -9.554688 13.875 -9.171875 14.84375 -9.171875 Z M 14.84375 -9.171875 "/></g></g></g><g fill="#ff751f" fill-opacity="1"><g transform="translate(30.212557, 68.78902)"><g><path d="M 2.328125 -52.5 L 16.1875 -52.5 C 20.382812 -52.5 23.378906 -51.140625 25.171875 -48.421875 C 26.960938 -45.710938 27.859375 -41.753906 27.859375 -36.546875 C 27.859375 -31.328125 27.0625 -27.394531 25.46875 -24.75 C 23.882812 -22.101562 21.035156 -20.78125 16.921875 -20.78125 L 12.65625 -20.78125 L 12.65625 0 L 2.328125 0 Z M 13.265625 -30.25 C 14.523438 -30.25 15.445312 -30.484375 16.03125 -30.953125 C 16.625 -31.421875 17.015625 -32.09375 17.203125 -32.96875 C 17.390625 -33.84375 17.484375 -35.097656 17.484375 -36.734375 C 17.484375 -38.929688 17.238281 -40.515625 16.75 -41.484375 C 16.257812 -42.460938 15.28125 -42.953125 13.8125 -42.953125 L 12.65625 -42.953125 L 12.65625 -30.25 Z M 13.265625 -30.25 "/></g></g></g><g fill="#ff751f" fill-opacity="1"><g transform="translate(59.057738, 68.78902)"><g><path d="M 2.328125 0 L 2.328125 -52.5 L 23.34375 -52.5 L 23.34375 -42.34375 L 13.015625 -42.34375 L 13.015625 -32.140625 L 22.921875 -32.140625 L 22.921875 -22.25 L 13.015625 -22.25 L 13.015625 -10.203125 L 24.015625 -10.203125 L 24.015625 0 Z M 2.328125 0 "/></g></g></g></g></g><g transform="matrix(1, 0, 0, 1, 181, 78)"><g clip-path="url(#8b1eb72d71)"><g fill="#171514" fill-opacity="1"><g transform="translate(1.038309, 59.768879)"><g><path d="M 12.734375 0.421875 C 8.734375 0.421875 5.863281 -0.671875 4.125 -2.859375 C 2.394531 -5.054688 1.53125 -8.332031 1.53125 -12.6875 L 1.53125 -28.28125 C 1.53125 -31.851562 2.554688 -34.578125 4.609375 -36.453125 C 6.660156 -38.328125 9.53125 -39.265625 13.21875 -39.265625 C 20.675781 -39.265625 24.40625 -35.601562 24.40625 -28.28125 L 24.40625 -25.46875 C 24.40625 -22.632812 24.367188 -20.335938 24.296875 -18.578125 L 10.828125 -18.578125 L 10.828125 -11.03125 C 10.828125 -9.6875 10.96875 -8.632812 11.25 -7.875 C 11.53125 -7.113281 12.128906 -6.734375 13.046875 -6.734375 C 13.753906 -6.734375 14.257812 -6.945312 14.5625 -7.375 C 14.863281 -7.800781 15.039062 -8.285156 15.09375 -8.828125 C 15.144531 -9.378906 15.171875 -10.1875 15.171875 -11.25 L 15.171875 -15.015625 L 24.40625 -15.015625 L 24.40625 -12.78125 C 24.40625 -8.257812 23.53125 -4.925781 21.78125 -2.78125 C 20.03125 -0.644531 17.015625 0.421875 12.734375 0.421875 Z M 15.171875 -23.1875 L 15.171875 -28.171875 C 15.171875 -30.972656 14.484375 -32.375 13.109375 -32.375 C 11.546875 -32.375 10.765625 -30.972656 10.765625 -28.171875 L 10.765625 -23.1875 Z M 15.171875 -23.1875 "/></g></g></g></g></g><g clip-path="url(#db3ccd62c3)"><g transform="matrix(1, 0, 0, 1, 52, -0.000000000000003234)"><g clip-path="url(#10aec1fe73)"><g fill="#171514" fill-opacity="1"><g transform="translate(29.055661, 20.153846)"><g><path d="M -1.5625 36.15625 L -1.5625 44.671875 L -4.59375 51.84375 L -10.796875 51.84375 L -8.875 44.90625 L -12.609375 44.90625 L -12.609375 36.15625 Z M -15.390625 36.15625 L -15.390625 44.671875 L -18.40625 51.84375 L -24.625 51.84375 L -22.6875 44.90625 L -26.4375 44.90625 L -26.4375 36.15625 Z M -15.390625 36.15625 "/></g></g></g></g></g></g></svg>