<?xml version="1.0" encoding="utf-8"?>
<svg xmlns="http://www.w3.org/2000/svg" xmlns:xlink="http://www.w3.org/1999/xlink" version= "1.1" width="100px" height="100px" viewBox="550 878 100 100">
<g id="layer1">
<g style="fill:rgb(144,144,144); fill-opacity:1.0; stroke-linejoin: miter">
<path d="M-206.11032,631.9873L-206.11032,631.9873L-206.11032,631.9873L-206.11032,631.9873L-206.11032,631.9873L-206.11032,631.9873L-206.11032,631.9873L-206.11032,631.9873L-206.11032,631.9873L-206.11032,631.9873 M-206.11032,632.81274L-206.11032,632.81274L-206.11032,632.81274L-206.11032,632.81274L-206.11032,632.81274L-206.11032,632.81274L-206.11032,632.81274L-206.11032,632.81274L-206.11032,632.81274 Z"/>
</g>
<g style="fill:rgb(36,35,35); fill-opacity:1.0; stroke-linejoin: miter">
<path d="M648.6735,927.9614L648.6735,927.9614C648.6735,953.78375,626.77936,974.68585,599.81116,974.68585L599.81116,974.68585C572.8427,974.68585,550.9487,953.78375,550.9487,927.9614L550.9487,927.9614C550.9487,902.1391,572.8429,881.237,599.81116,881.237L599.81116,881.237C626.77936,881.237,648.6735,902.1391,648.6735,927.9614L648.6735,927.9614 M647.8499,927.9614L647.8499,927.9614C647.8499,902.6285,626.3599,882.0606,599.81116,882.0606L599.81116,882.0606C573.2623,882.0606,551.77234,902.6285,551.77234,927.9614L551.77234,927.9614C551.77234,953.2944,573.26215,973.86224,599.81116,973.86224L599.81116,973.86224C626.3599,973.86224,647.8499,953.2944,647.8499,927.9614 Z"/>
</g>
</g>
<g id="layer2">
<g style="fill:rgb(71,72,72); fill-opacity:1.0; stroke-linejoin: miter">
<path d="M648.9583,927.9614L648.9583,927.9614C648.9583,953.95306,626.9244,974.97064,599.81116,974.97064L599.81116,974.97064C572.6977,974.97064,550.66394,953.95306,550.66394,927.9614L550.66394,927.9614C550.66394,901.9698,572.6979,880.9522,599.81116,880.9522L599.81116,880.9522C626.9244,880.9522,648.9583,901.9698,648.9583,927.9614L648.9583,927.9614 M647.5651,927.9614L647.5651,927.9614C647.5651,902.7978,626.2149,882.3454,599.81116,882.3454L599.81116,882.3454C573.40735,882.3454,552.0571,902.7978,552.0571,927.9614L552.0571,927.9614C552.0571,953.12506,573.40717,973.57745,599.81116,973.57745L599.81116,973.57745C626.2149,973.57745,647.5651,953.12506,647.5651,927.9614 Z"/>
</g>
<g style="fill:rgb(36,35,35); fill-opacity:1.0; stroke-linejoin: miter">
<path d="M492.5068,852.9222L508.2366,839.6361L494.47302,851.2614L508.2366,839.6362L503.6852,843.4806L494.47305,851.2615L508.23666,839.63617L492.5068,852.9222L508.2366,839.6361L494.47302,851.2614L508.2366,839.6362L503.6852,843.4806L494.47305,851.2615L508.23666,839.63617L492.5068,852.9222L508.2366,839.6361L494.47302,851.2614L508.2366,839.6362L503.6852,843.4806L494.47305,851.2615L508.23666,839.63617L492.5068,852.9222L508.2366,839.6361L494.47302,851.2614L508.2366,839.6362L503.6852,843.4806L494.47305,851.2615L508.23666,839.63617L492.5068,852.9222"/>
</g>
<g style="fill:rgb(36,35,35); fill-opacity:1.0; stroke-linejoin: miter">
<path d="M500.3717,845.9158L500.36542,846.07886L500.3484,846.2075L500.3235,846.3061L500.2935,846.3788L500.26126,846.42993L500.22955,846.46375Q500.2047,846.4852,500.1661,846.504L500.1649,846.5113Q500.16962,846.5184,500.2093,846.54205L500.25302,846.5548L500.30182,846.5455L500.354,846.518L500.4079,846.47644L500.46176,846.4248Q500.51566,846.3681,500.56277,846.30725Q500.65714,846.1826,500.69675,846.1167Q500.6571,846.1825,500.5627,846.3071Q500.5156,846.36804,500.4617,846.4247L500.4078,846.4764L500.3539,846.51794L500.30173,846.5454L500.2529,846.55475L500.20917,846.54205L500.16476,846.51294L500.16602,846.5097Q500.20462,846.51227,500.2295,846.5092L500.2612,846.50214L500.29346,846.4865L500.32346,846.4594L500.3484,846.41785L500.36542,846.35876Q500.37238,846.27997,500.3767,846.19794L500.39017,846.1354L500.40985,846.0905L500.43356,846.0625L500.45908,846.05035L500.48413,846.05316L500.5065,846.07L500.524,846.0999L500.53433,846.1421L500.53528,846.1955L500.52466,846.2592L500.50018,846.33234L500.46426,846.39966L500.42197,846.4481L500.37512,846.4803L500.3255,846.49854L500.27493,846.5054Q500.22388,846.50653,500.17822,846.49475Q500.08646,846.4682,500.04666,846.4417Q500.08627,846.4679,500.18173,846.50104Q500.22943,846.51636,500.2845,846.52234L500.33972,846.52374L500.39536,846.51605L500.4497,846.49713L500.50116,846.4648L500.54807,846.4169Q500.58026,846.3795,500.64316,846.2788L500.659,846.2484Q500.67093,846.22217,500.66824,846.21497L500.66217,846.2132L500.6493,846.2222L500.62982,846.24274Q500.60706,846.269,500.57208,846.32074L500.3717,846.64264L500.16483,846.5148L500.20926,846.54224L500.253,846.55493L500.3018,846.5456L500.354,846.5181Q500.5026,846.4169,500.69684,846.1165Q500.65717,846.1825,500.56277,846.3072Q500.51566,846.3681,500.46173,846.4248L500.40784,846.4765L500.3539,846.51807L500.3017,846.5456L500.25287,846.55493L500.2091,846.54224L500.16473,846.5131L500.16595,846.5098Q500.2046,846.5123,500.22946,846.50934L500.26117,846.5022L500.29343,846.4866L500.32346,846.4595L500.3484,846.4179L500.36542,846.35876Q500.37238,846.27997,500.3767,846.19794L500.39017,846.1353L500.40988,846.09045L500.4336,846.06244L500.4591,846.0503L500.48416,846.0531L500.50656,846.0699L500.52405,846.09985L500.53436,846.142L500.53534,846.19543L500.52472,846.25916L500.50024,846.33234L500.4643,846.39966L500.422,846.4482L500.37512,846.48035L500.32547,846.4986L500.2749,846.50543Q500.22385,846.5066,500.17813,846.4948Q500.08636,846.4682,500.04657,846.4417Q500.08615,846.46796,500.18164,846.5011Q500.22937,846.5165,500.28445,846.5224L500.33972,846.5238L500.39536,846.5161L500.44974,846.49725L500.5012,846.4649L500.54813,846.417Q500.58032,846.3796,500.64325,846.2788L500.65906,846.2484Q500.67102,846.2221,500.66833,846.2149L500.6623,846.21313L500.64938,846.22217L500.6299,846.2427Q500.60715,846.2689,500.57214,846.32074L500.3717,846.64276L500.37177,846.2792L500.37167,846.2791L500.3717,845.9155Q500.05078,846.42444,500.02734,846.3605L500.03018,846.3347L500.04697,846.2998Q500.07068,846.2603,500.11414,846.21277L500.16052,846.1659Q500.26514,846.0655,500.38382,846.0161L500.439,846.0011L500.48984,846.00024L500.53433,846.0161Q500.6171,846.0639,500.63666,846.0928L500.64108,846.10834L500.6359,846.12427L500.62054,846.14154Q500.60013,846.1594,500.55713,846.18353L500.2984,846.3181Q500.17487,846.392,500.1373,846.4298Q500.1961,846.3352,500.21252,846.2952L500.2982,846.096L500.32034,846.0494Q500.34088,846.0087,500.35934,845.99036L500.3784,845.9771L500.3985,845.9741L500.4208,845.98096L500.44638,845.99713Q500.49893,846.0389,500.6024,846.1482L500.5992,846.1497Q500.54648,846.12195,500.51044,846.1075Q500.46533,846.0885,500.41107,846.081L500.3571,846.08044L500.30374,846.0939L500.25357,846.1252L500.20917,846.1786Q500.1197,846.3241,500.12057,846.3294L500.10754,846.3607L500.1038,846.3836L500.11,846.3986L500.12674,846.40656Q500.14877,846.4108,500.19446,846.4033Q500.20062,846.405,500.391,846.3604L500.46924,846.3385L500.53244,846.31366L500.58148,846.2865L500.61728,846.2574L500.64072,846.22687L500.6527,846.1955L500.65414,846.1637L500.6459,846.132L500.6289,846.1009Q500.60754,846.07007,500.57224,846.0425L500.53433,846.0161L500.3717,845.9157Q500.0509,846.4244,500.0275,846.3604L500.03033,846.33466L500.0471,846.29974Q500.0708,846.26025,500.11423,846.21277L500.16058,846.1659Q500.26517,846.06555,500.38382,846.01624L500.43896,846.0012L500.4898,846.0003L500.53427,846.01624Q500.61703,846.06396,500.6366,846.09283L500.641,846.1084L500.6358,846.1243L500.62048,846.14154Q500.60007,846.1594,500.55707,846.18353L500.29843,846.3181Q500.17493,846.392,500.1374,846.4298Q500.19617,846.3352,500.2126,846.2952L500.29822,846.09607L500.32037,846.04944Q500.3409,846.0088,500.35938,845.9904L500.37836,845.9772L500.3985,845.9742L500.4208,845.981L500.44635,845.9972Q500.49884,846.0389,500.6023,846.1482L500.59915,846.1497Q500.54645,846.1221,500.5104,846.10754Q500.4653,846.08856,500.41107,846.0811L500.35712,846.08057L500.30377,846.09393L500.25363,846.1253L500.20926,846.17865Q500.1198,846.3241,500.12067,846.3294L500.10764,846.3607L500.1039,846.38354L500.11008,846.3986L500.12683,846.4065Q500.14883,846.41077,500.1945,846.40326Q500.20065,846.40497,500.39093,846.3604L500.46918,846.3387Q500.6019,846.2945,500.6526,846.24097L500.65402,846.2359L500.64578,846.23975Q500.63272,846.24805,500.60394,846.28125Q500.57516,846.31445,500.53424,846.3796L500.4969,846.42566L500.46576,846.4365L500.44028,846.418Q500.37808,846.3256,500.3717,845.9158"/>
</g>
<g style="fill:rgb(36,35,35); fill-opacity:1.0; stroke-linejoin: miter">
<path d="M500.37173,840.7885L500.27652,843.25256L500.01932,845.1971L499.64276,846.6865L499.18945,847.7854L498.70206,848.55817L498.2232,849.0693Q497.84735,849.393,497.26404,849.67755L497.24554,849.7869Q497.3166,849.89435,497.91626,850.2523L498.57703,850.4446L499.31454,850.30304L500.1032,849.88806L500.91742,849.26013L501.73166,848.4796Q502.5459,847.62286,503.2578,846.70294Q504.6838,844.8198,505.2827,843.82367Q504.68378,844.81976,503.25778,846.7028Q502.54584,847.6228,501.73163,848.4795L500.9174,849.25995L500.10315,849.8879L499.31448,850.30286L498.57697,850.44446L497.91623,850.25214L497.24548,849.81226L497.26398,849.7633Q497.8473,849.80133,498.22314,849.7556L498.70203,849.6481L499.18945,849.4123L499.64276,849.0029L500.01932,848.3746L500.27652,847.48175Q500.3817,846.2914,500.447,845.05206L500.65033,844.10675L500.94803,843.4293L501.3064,843.0058L501.69174,842.82227L502.0703,842.8647L502.40845,843.11914L502.67245,843.57166L502.8286,844.2083L502.8432,845.0151L502.68256,845.978L502.31296,847.08325L501.77032,848.1002L501.13132,848.8328L500.4233,849.3184L499.67365,849.5943L498.9097,849.6978Q498.13858,849.7152,497.4484,849.53735Q496.06213,849.1353,495.46066,848.7347Q496.05862,849.1292,497.5007,849.6297Q498.2214,849.8615,499.0531,849.9512L499.8877,849.97235L500.72803,849.8566L501.54932,849.57104L502.32663,849.08276L503.03516,848.35876Q503.52155,847.79456,504.47162,846.2731L504.7107,845.814Q504.89102,845.41724,504.85083,845.3086L504.75912,845.2818L504.5644,845.4185L504.27023,845.7287Q503.92633,846.1255,503.39804,846.908L500.37173,851.76996L497.24548,849.8378L497.91623,850.2524L498.577,850.4447L499.3145,850.3031L500.10318,849.8881Q502.34772,848.3584,505.28287,843.8236Q504.68384,844.8197,503.25784,846.7028Q502.5459,847.6228,501.73163,848.47955L500.91736,849.2601L500.10312,849.88806L499.31445,850.30304L498.5769,850.4446L497.91614,850.2523L497.2454,849.8124L497.2639,849.7634Q497.84723,849.80145,498.2231,849.7557L498.702,849.64813L499.18942,849.41235L499.64273,849.003L500.01932,848.37463L500.27652,847.4818Q500.3817,846.2914,500.447,845.052L500.65033,844.1067L500.94806,843.42926L501.30643,843.0058L501.69174,842.8222L502.07034,842.8646L502.4085,843.1191L502.67252,843.57166L502.82864,844.20825L502.84326,845.0151L502.68262,845.978L502.313,847.08325L501.77036,848.1003L501.13135,848.8329L500.4233,849.3185L499.6736,849.59436L498.90967,849.69794Q498.13855,849.7153,497.44833,849.53735Q496.06204,849.1354,495.46057,848.7347Q496.05856,849.1293,497.50064,849.6298Q498.22137,849.86163,499.05307,849.95123L499.88766,849.9724L500.72803,849.8567L501.54932,849.5711L502.32666,849.08276L503.03522,848.35876Q503.5216,847.7945,504.4717,846.2731L504.7108,845.814Q504.8911,845.41724,504.85092,845.3086L504.75925,845.2818L504.56448,845.4186L504.27032,845.7287Q503.92645,846.12555,503.39813,846.9081L500.37173,851.76996Q498.45627,850.4261,497.96594,850.05634L497.46967,849.66974L497.45242,849.6292L498.07877,849.9894L498.6958,850.16895L499.3845,850.03674L500.12097,849.64923Q502.21695,848.22076,504.95776,843.98615Q504.3984,844.9163,503.06677,846.6748Q502.40198,847.5339,501.6416,848.3339L500.88126,849.06274L500.1209,849.6492L499.38443,850.0367L498.69574,850.1689L498.0787,849.9893L497.4524,849.5785L497.46964,849.5328Q498.01434,849.56824,498.36536,849.5255L498.81253,849.42505L499.2677,849.2049L499.69098,848.82263L500.04263,848.2359L500.28284,847.40216Q500.38104,846.2906,500.44202,845.13324L500.6319,844.25055L500.90988,843.618L501.24454,843.2225L501.60437,843.0511L501.9579,843.0907L502.27365,843.3283L502.52017,843.7509L502.666,844.3454L502.67963,845.09875L502.5296,845.998L502.18448,847.03L501.67776,847.97974L501.08105,848.6638L500.4199,849.11725L499.71985,849.3749L499.00647,849.4716Q498.2864,849.4878,497.64188,849.3217Q496.34738,848.9463,495.7857,848.57227Q496.34412,848.9406,497.69073,849.408Q498.36374,849.62445,499.14038,849.7082L499.91974,849.72797L500.70447,849.6199L501.47137,849.3533L502.19724,848.8973L502.8589,848.2212Q503.31308,847.6943,504.20026,846.27356L504.4235,845.84485Q504.59186,845.4743,504.55435,845.37286L504.46872,845.34784L504.28687,845.4755L504.01218,845.76514Q503.69107,846.1357,503.19775,846.8664L500.37173,851.40643L497.45242,849.60223L498.07877,849.9894L498.6958,850.16895L499.3845,850.03674L500.12097,849.64923Q502.21695,848.22076,504.95773,843.98615Q504.39838,844.9163,503.06677,846.6748Q502.40195,847.5339,501.6416,848.3339L500.88126,849.06274L500.1209,849.6492L499.38443,850.0367L498.69574,850.1689L498.0787,849.9893L497.4524,849.5785L497.46964,849.5328Q498.01434,849.56824,498.36536,849.5255L498.81253,849.42505L499.2677,849.2049L499.69098,848.82263L500.04263,848.2359L500.28284,847.40216Q500.38104,846.2906,500.44202,845.13324L500.6319,844.25055L500.90988,843.618L501.24454,843.2225L501.60437,843.0511L501.9579,843.0907L502.27365,843.3283L502.52017,843.7509L502.666,844.3454L502.67963,845.09875L502.5296,845.998L502.18448,847.03L501.67776,847.97974L501.08105,848.6638L500.4199,849.11725L499.71985,849.3749L499.00647,849.47156Q498.2864,849.4878,497.64188,849.32166Q496.34738,848.9463,495.7857,848.5721Q496.34412,848.94055,497.69073,849.40796Q498.36374,849.6244,499.14038,849.7081L499.91974,849.72797L500.70447,849.6199L501.47137,849.3533L502.19724,848.8973L502.8589,848.2212Q503.31308,847.6943,504.20026,846.27356L504.4235,845.84485Q504.59186,845.47437,504.55435,845.3729L504.46872,845.3479L504.28687,845.4756L504.01218,845.7652Q503.69107,846.13574,503.19775,846.86646L500.37173,851.40643L500.37173,841.15186Q498.6211,843.99,496.8945,846.30865Q496.34457,847.02423,495.96884,847.359L495.6675,847.543L495.5151,847.42566L495.55515,847.0622Q495.9173,846.0964,497.39276,844.68066Q498.8682,843.26495,500.5422,842.56885L501.3202,842.3572L502.03723,842.34503L502.66476,842.5691Q503.92734,843.3568,503.9187,843.4242L504.10846,843.65125L504.1708,843.8708L504.09784,844.09564Q503.95715,844.32324,503.51395,844.61304Q503.07074,844.9029,502.29315,845.3065L499.338,846.8296Q497.5957,847.87195,497.06577,848.4047Q497.89462,847.07,498.12622,846.50616L499.33453,843.69635L499.64703,843.0382Q499.93695,842.46497,500.19736,842.206L500.4656,842.01935L500.74948,841.9773L501.06418,842.07355L501.42496,842.30176Q502.1657,842.8907,503.625,844.43286L503.5805,844.45435Q502.8368,844.0633,502.32828,843.85876L501.6598,843.6315L500.92667,843.4854L500.16544,843.4781L499.4127,843.6668L498.70496,844.10895L498.07877,844.86194Q496.81653,846.914,496.829,846.989L496.64505,847.4304L496.59222,847.7528L496.67947,847.9651L496.91565,848.07623Q497.22632,848.1368,497.8705,848.0306Q497.95746,848.055,500.64243,847.4257L501.74625,847.1164L502.63782,846.7663L503.32977,846.3825L503.8348,845.9719L504.1656,845.54175L504.33472,845.0989L504.35492,844.6503L504.23883,844.2032L503.9991,843.76447L503.6484,843.3411Q503.24222,842.92554,502.66476,842.5689L500.37173,841.15186Q498.6211,843.99,496.8945,846.3087Q496.34457,847.0243,495.9688,847.3591L495.66748,847.54315L495.51508,847.4257L495.5551,847.06226Q495.91727,846.0964,497.39273,844.68066Q498.86816,843.26495,500.5422,842.56885L501.3202,842.3572L502.03723,842.34503L502.66476,842.5691Q503.83246,843.2433,504.10846,843.6512L504.1708,843.8707L504.09784,844.0956L503.88153,844.33875Q503.59357,844.591,502.98715,844.9313L499.338,846.8296Q497.5957,847.87195,497.06577,848.4047Q497.89462,847.07,498.12622,846.50616L499.33453,843.69635Q499.662,842.9565,499.92957,842.5435L500.19736,842.206L500.4656,842.01935L500.74948,841.9773L501.06418,842.07355Q501.39432,842.2389,501.84692,842.6557Q503.13477,843.8866,503.625,844.43286L503.5805,844.45435Q502.8368,844.0633,502.32828,843.85876L501.6598,843.6315L500.92664,843.4854L500.16544,843.4781L499.41266,843.6668L498.70493,844.10895L498.0787,844.86194Q496.8165,846.914,496.82895,846.989L496.645,847.4304L496.5922,847.7528L496.6794,847.9651L496.91562,848.07623Q497.2263,848.1368,497.87045,848.0306Q497.9574,848.055,500.6424,847.4257L501.74622,847.1163L502.6378,846.76544L503.32977,846.37964L503.8348,845.9652L504.1656,845.52856L504.33475,845.0761L504.35495,844.61426L504.23883,844.14935L503.9991,843.6878L503.64844,843.23596Q503.24225,842.78906,502.66476,842.3872L500.37173,840.7883Q495.52466,848.4739,495.17072,847.507L495.2136,847.1178L495.46674,846.59Q495.82498,845.9931,496.4813,845.2757L497.1815,844.5673Q498.76157,843.0512,500.5543,842.3058L501.38742,842.07904L502.1553,842.0661L502.82733,842.306Q504.07782,843.028,504.37338,843.46484L504.44016,843.69995L504.362,843.9408L504.13037,844.2012Q503.822,844.4713,503.17258,844.83575L499.26474,846.8686Q497.3989,847.98486,496.8314,848.5554Q497.719,847.1261,497.96704,846.52234L499.26102,843.51324L499.59564,842.8085Q499.9061,842.1945,500.185,841.91724L500.47226,841.71735L500.77625,841.6723L501.11328,841.7753L501.49963,842.0198Q502.2929,842.65045,503.85565,844.302L503.80798,844.325Q503.01157,843.9062,502.46698,843.6872Q501.7857,843.40027,500.966,843.2874L500.15082,843.27954L499.3447,843.4816L498.58676,843.95514L497.91617,844.7615Q496.56448,846.959,496.57782,847.0393L496.38083,847.512L496.32428,847.85724L496.4177,848.08466L496.67065,848.2036Q497.00333,848.2685,497.69318,848.1547Q497.7863,848.18085,500.66162,847.507L501.8437,847.1757L502.79843,846.80084L503.53946,846.3898L504.0803,845.9502L504.4345,845.48944L504.61563,845.0152L504.63727,844.5349L504.51294,844.056L504.25623,843.58624Q503.93332,843.1209,503.39984,842.7037L502.8273,842.306L500.37173,840.7883Q495.52478,848.4739,495.17084,847.507L495.2137,847.1178L495.46683,846.5901Q495.82507,845.9931,496.48135,845.2757L497.18155,844.5674Q498.7616,843.05133,500.5543,842.3059L501.3874,842.0792L502.15524,842.0663L502.82724,842.30615Q504.07773,843.02814,504.3733,843.46497L504.44006,843.7001L504.3619,843.94086L504.13028,844.20123Q503.82193,844.4714,503.17252,844.8358L499.26477,846.8686Q497.39896,847.98486,496.83145,848.55536Q497.71906,847.12604,497.96707,846.5223L499.26102,843.5133L499.59567,842.8085Q499.90613,842.1946,500.185,841.9173L500.47223,841.7174L500.77625,841.67236L501.11325,841.77545L501.49957,842.01984Q502.29285,842.6506,503.85556,844.30206L503.80792,844.3251Q503.0115,843.90625,502.46695,843.6872Q501.78568,843.4003,500.96597,843.2875L500.15082,843.2796L499.3447,843.4817L498.5868,843.9552L497.91623,844.76154Q496.56458,846.959,496.5779,847.0393L496.38092,847.51196L496.32437,847.85724L496.4178,848.08453L496.67072,848.20355Q497.0034,848.2684,497.6932,848.15466Q497.78632,848.1808,500.6616,847.50696L501.84363,847.17883Q503.84918,846.5109,504.61554,845.70154L504.63718,845.6248L504.51285,845.683Q504.31555,845.80865,503.88058,846.3105Q503.44565,846.8123,502.82724,847.79675L502.26312,848.49347L501.79276,848.65717L501.40765,848.37787Q500.46765,846.9819,500.37173,840.7885"/>
</g>
<g style="fill:rgb(36,35,35); fill-opacity:1.0; stroke-linejoin: miter">
<path d="M500.37173,845.91943L500.37173,845.91943L500.37173,845.91943L500.37173,845.91943L500.37173,845.91943L500.37173,845.91943L500.37173,845.91943L500.37173,845.91943L500.37173,845.91943L500.37173,845.91943 M500.37173,846.6389L500.37173,846.6389L500.37173,846.6389L500.37173,846.6389L500.37173,846.6389L500.37173,846.6389L500.37173,846.6389L500.37173,846.6389L500.37173,846.6389 Z"/>
</g>
<g style="fill:rgb(254,254,254); fill-opacity:1.0; stroke-linejoin: miter">
<path d="M599.81116,882.25934C573.3636,882.25934,551.97107,902.74664,551.97107,927.9614C551.97107,953.1762,573.3634,973.6635,599.81116,973.6635C626.25867,973.6635,647.6512,953.1762,647.6512,927.9614C647.6512,902.74664,626.25867,882.25934,599.81116,882.25934 Z"/>
</g>
</g>
<g id="layer3">
<g style="fill:rgb(109,109,109); fill-opacity:0.5294118; stroke-linejoin: miter">
<path d="M639.3462,928.5048L639.3462,928.5048C638.9421,949.2004,621.068,965.6041,599.4615,965.1822L599.4615,965.1822C577.85504,964.76025,560.63525,947.67114,561.03937,926.97546L561.03937,926.97546C561.44354,906.2799,579.3175,889.87604,600.924,890.298L600.924,890.298C622.53046,890.7199,639.7504,907.809,639.3462,928.5048L639.3462,928.5048 M638.5425,928.4891L638.5425,928.4891C638.9374,908.271,622.1054,891.5156,600.90826,891.1017L600.90826,891.1017C579.7111,890.68774,562.238,906.7733,561.8431,926.9912L561.8431,926.9912C561.44824,947.20917,578.2801,963.9645,599.47723,964.3785L599.47723,964.3785C620.6744,964.7924,638.14764,948.707,638.5425,928.4891 Z"/>
</g>
<g style="fill:rgb(36,35,35); fill-opacity:1.0; stroke-linejoin: miter">
<path d="M338.95123,814.7336L338.95123,814.7336L338.95123,814.7336L338.95123,814.7336L338.95123,814.7336L338.95123,814.7336L338.95123,814.7336L338.95123,814.7336L338.95123,814.7336L338.95123,814.7336 M338.95123,815.5572L338.95123,815.5572L338.95123,815.5572L338.95123,815.5572L338.95123,815.5572L338.95123,815.5572L338.95123,815.5572L338.95123,815.5572L338.95123,815.5572 Z"/>
</g>
<g style="fill:rgb(36,35,35); fill-opacity:1.0; stroke-linejoin: miter">
<path d="M405.22183,836.3081L405.22183,836.3081L405.22183,836.3081L405.22183,836.3081L405.22183,836.3081L405.22183,836.3081L405.22183,836.3081L405.22183,836.3081L405.22183,836.3081L405.22183,836.3081 M405.22183,837.1317L405.22183,837.1317L405.22183,837.1317L405.22183,837.1317L405.22183,837.1317L405.22183,837.1317L405.22183,837.1317L405.22183,837.1317L405.22183,837.1317 Z"/>
</g>
<g style="fill:rgb(36,35,35); fill-opacity:1.0; stroke-linejoin: miter">
<path d="M639.16833,899.77057L639.16833,899.77057L639.16833,899.77057L639.16833,899.77057L639.16833,899.77057L639.16833,899.77057L639.16833,899.77057L639.16833,899.77057L639.16833,899.77057L639.16833,899.77057 M639.16833,900.5942L639.16833,900.5942L639.16833,900.5942L639.16833,900.5942L639.16833,900.5942L639.16833,900.5942L639.16833,900.5942L639.16833,900.5942L639.16833,900.5942 Z"/>
</g>
<g style="fill:rgb(36,35,35); fill-opacity:1.0; stroke-linejoin: miter">
<path d="M639.1452,899.9893L639.1452,899.9893L639.1452,899.9893L639.1452,899.9893L639.1452,899.9893L639.1452,899.9893L639.1452,899.9893L639.1452,899.9893L639.1452,899.9893L639.1452,899.9893 M639.1452,900.8129L639.1452,900.8129L639.1452,900.8129L639.1452,900.8129L639.1452,900.8129L639.1452,900.8129L639.1452,900.8129L639.1452,900.8129L639.1452,900.8129 Z"/>
</g>
<g style="fill:rgb(36,35,35); fill-opacity:1.0; stroke-linejoin: miter">
<path d="M639.1249,899.95654L639.1249,899.95654L639.1249,899.95654L639.1249,899.95654L639.1249,899.95654L639.1249,899.95654L639.1249,899.95654L639.1249,899.95654L639.1249,899.95654L639.1249,899.95654 M639.1249,900.78015L639.1249,900.78015L639.1249,900.78015L639.1249,900.78015L639.1249,900.78015L639.1249,900.78015L639.1249,900.78015L639.1249,900.78015L639.1249,900.78015 Z"/>
</g>
<g style="fill:rgb(36,35,35); fill-opacity:1.0; stroke-linejoin: miter">
<path d="M639.0468,900.0503L639.0468,900.0503L639.0468,900.0503L639.0468,900.0503L639.0468,900.0503L639.0468,900.0503L639.0468,900.0503L639.0468,900.0503L639.0468,900.0503L639.0468,900.0503 M639.0468,900.8739L639.0468,900.8739L639.0468,900.8739L639.0468,900.8739L639.0468,900.8739L639.0468,900.8739L639.0468,900.8739L639.0468,900.8739L639.0468,900.8739 Z"/>
</g>
<g style="fill:rgb(36,35,35); fill-opacity:1.0; stroke-linejoin: miter">
<path d="M639.11523,899.7582L639.11523,899.7582L639.11523,899.7582L639.11523,899.7582L639.11523,899.7582L639.11523,899.7582L639.11523,899.7582L639.11523,899.7582L639.11523,899.7582L639.11523,899.7582 M639.11523,900.5818L639.11523,900.5818L639.11523,900.5818L639.11523,900.5818L639.11523,900.5818L639.11523,900.5818L639.11523,900.5818L639.11523,900.5818L639.11523,900.5818 Z"/>
</g>
<g style="fill:rgb(36,35,35); fill-opacity:1.0; stroke-linejoin: miter">
<path d="M641.7845,866.10626L641.7845,866.10626L641.7845,866.10626L641.7845,866.10626L641.7845,866.10626L641.7845,866.10626L641.7845,866.10626L641.7845,866.10626L641.7845,866.10626L641.7845,866.10626 M641.7845,866.9299L641.7845,866.9299L641.7845,866.9299L641.7845,866.9299L641.7845,866.9299L641.7845,866.9299L641.7845,866.9299L641.7845,866.9299L641.7845,866.9299 Z"/>
</g>
<g style="fill:rgb(36,35,35); fill-opacity:1.0; stroke-linejoin: miter">
<path d="M423.57623,840.1317L423.57623,840.1317L423.57623,840.1317L423.57623,840.1317L423.57623,840.1317L423.57623,840.1317L423.57623,840.1317L423.57623,840.1317L423.57623,840.1317L423.57623,840.1317 M423.57623,840.9553L423.57623,840.9553L423.57623,840.9553L423.57623,840.9553L423.57623,840.9553L423.57623,840.9553L423.57623,840.9553L423.57623,840.9553L423.57623,840.9553 Z"/>
</g>
<g style="fill:rgb(36,35,35); fill-opacity:1.0; stroke-linejoin: miter">
<path d="M423.57623,840.1317L423.57623,840.1317L423.57623,840.1317L423.57623,840.1317L423.57623,840.1317L423.57623,840.1317L423.57623,840.1317L423.57623,840.1317L423.57623,840.1317L423.57623,840.1317 M423.57623,840.9553L423.57623,840.9553L423.57623,840.9553L423.57623,840.9553L423.57623,840.9553L423.57623,840.9553L423.57623,840.9553L423.57623,840.9553L423.57623,840.9553 Z"/>
</g>
<g style="fill:rgb(36,35,35); fill-opacity:1.0; stroke-linejoin: miter">
<path d="M426.857,822.5737L426.857,822.5737L426.857,822.5737L426.857,822.5737L426.857,822.5737L426.857,822.5737L426.857,822.5737L426.857,822.5737L426.857,822.5737L426.857,822.5737 M426.857,823.39734L426.857,823.39734L426.857,823.39734L426.857,823.39734L426.857,823.39734L426.857,823.39734L426.857,823.39734L426.857,823.39734L426.857,823.39734 Z"/>
</g>
<g style="fill:rgb(36,35,35); fill-opacity:1.0; stroke-linejoin: miter">
<path d="M544.08813,840.9702L544.08813,840.9702L544.08813,840.9702L544.08813,840.9702L544.08813,840.9702L544.08813,840.9702L544.08813,840.9702L544.08813,840.9702L544.08813,840.9702L544.08813,840.9702 M544.08813,841.7938L544.08813,841.7938L544.08813,841.7938L544.08813,841.7938L544.08813,841.7938L544.08813,841.7938L544.08813,841.7938L544.08813,841.7938L544.08813,841.7938 Z"/>
</g>
<g style="fill:url(#grad0); fill-opacity:1.0; stroke-linejoin: miter">
<path d="M600.1086,891.01843C579.2356,891.01843,562.1584,906.9826,561.76764,926.98975C561.37195,947.2524,578.2401,964.0392,599.47577,964.4539C599.7356,964.459,600.01825,964.46173,600.2769,964.46173C621.14996,964.46173,638.22723,948.4977,638.6179,928.49054C639.0137,908.2276,622.1452,891.4409,600.9097,891.02625C600.6499,891.0212,600.3671,891.01843,600.1086,891.01843 Z"/>
</g>
</g>
<defs>
<linearGradient id="grad0" gradientUnits="userSpaceOnUse" x1="576.12024" y1="955.94525" x2="499.42493" y2="1000.84973" >
<stop offset="0.0%" style="stop-color:rgb(254,254,254); stop-opacity:1.0" />
<stop offset="0.0%" style="stop-color:rgb(254,254,254); stop-opacity:1.0" />
<stop offset="0.0%" style="stop-color:rgb(254,254,254); stop-opacity:1.0" />
<stop offset="100.0%" style="stop-color:rgb(0,0,0); stop-opacity:1.0" />
</linearGradient>
</defs>
</svg>