<svg xmlns="http://www.w3.org/2000/svg" xmlns:xlink="http://www.w3.org/1999/xlink" width="300" zoomAndPan="magnify" viewBox="0 0 224.87999 225" height="300" preserveAspectRatio="xMidYMid meet" version="1.0"><defs><g/><clipPath id="e057e433a7"><path d="M 92.363281 87.273438 L 133.527344 87.273438 L 133.527344 143.234375 L 92.363281 143.234375 Z M 92.363281 87.273438 " clip-rule="nonzero"/></clipPath><clipPath id="5d1c751a96"><path d="M 102.859375 87.273438 L 123.035156 87.273438 C 128.832031 87.273438 133.527344 91.972656 133.527344 97.769531 L 133.527344 132.597656 C 133.527344 138.390625 128.832031 143.089844 123.035156 143.089844 L 102.859375 143.089844 C 97.0625 143.089844 92.363281 138.390625 92.363281 132.597656 L 92.363281 97.769531 C 92.363281 91.972656 97.0625 87.273438 102.859375 87.273438 Z M 102.859375 87.273438 " clip-rule="nonzero"/></clipPath><clipPath id="3a3d18f8d1"><path d="M 0.363281 0.273438 L 41.527344 0.273438 L 41.527344 56.234375 L 0.363281 56.234375 Z M 0.363281 0.273438 " clip-rule="nonzero"/></clipPath><clipPath id="b1022df50e"><path d="M 10.859375 0.273438 L 31.035156 0.273438 C 36.832031 0.273438 41.527344 4.972656 41.527344 10.769531 L 41.527344 45.597656 C 41.527344 51.390625 36.832031 56.089844 31.035156 56.089844 L 10.859375 56.089844 C 5.0625 56.089844 0.363281 51.390625 0.363281 45.597656 L 0.363281 10.769531 C 0.363281 4.972656 5.0625 0.273438 10.859375 0.273438 Z M 10.859375 0.273438 " clip-rule="nonzero"/></clipPath><clipPath id="e21777aec7"><rect x="0" width="42" y="0" height="57"/></clipPath><clipPath id="50d1016c9c"><rect x="0" width="28" y="0" height="79"/></clipPath><clipPath id="357cc2f84d"><path d="M 85.476562 87.277344 L 140.636719 87.277344 L 140.636719 146.492188 L 85.476562 146.492188 Z M 85.476562 87.277344 " clip-rule="nonzero"/></clipPath><clipPath id="524b47a9b6"><path d="M 92.972656 87.277344 L 133.113281 87.277344 C 137.253906 87.277344 140.609375 90.632812 140.609375 94.773438 L 140.609375 138.769531 C 140.609375 142.910156 137.253906 146.265625 133.113281 146.265625 L 92.972656 146.265625 C 88.832031 146.265625 85.476562 142.910156 85.476562 138.769531 L 85.476562 94.773438 C 85.476562 90.632812 88.832031 87.277344 92.972656 87.277344 Z M 92.972656 87.277344 " clip-rule="nonzero"/></clipPath><clipPath id="f4f55049bf"><path d="M 87.707031 76.886719 L 137.113281 76.886719 L 137.113281 102.386719 L 87.707031 102.386719 Z M 87.707031 76.886719 " clip-rule="nonzero"/></clipPath><clipPath id="5bc2251700"><path d="M 112.359375 76.886719 C 98.742188 76.886719 87.707031 82.597656 87.707031 89.636719 C 87.707031 96.679688 98.742188 102.386719 112.359375 102.386719 C 125.976562 102.386719 137.015625 96.679688 137.015625 89.636719 C 137.015625 82.597656 125.976562 76.886719 112.359375 76.886719 Z M 112.359375 76.886719 " clip-rule="nonzero"/></clipPath><clipPath id="7384082452"><path d="M 0.707031 0.886719 L 50.113281 0.886719 L 50.113281 26.386719 L 0.707031 26.386719 Z M 0.707031 0.886719 " clip-rule="nonzero"/></clipPath><clipPath id="0c8c155804"><path d="M 25.359375 0.886719 C 11.742188 0.886719 0.707031 6.597656 0.707031 13.636719 C 0.707031 20.679688 11.742188 26.386719 25.359375 26.386719 C 38.976562 26.386719 50.015625 20.679688 50.015625 13.636719 C 50.015625 6.597656 38.976562 0.886719 25.359375 0.886719 Z M 25.359375 0.886719 " clip-rule="nonzero"/></clipPath><clipPath id="d2de43f1f8"><rect x="0" width="51" y="0" height="27"/></clipPath><clipPath id="11245c28f9"><path d="M 87.707031 82.542969 L 138.1875 82.542969 L 138.1875 104.082031 L 87.707031 104.082031 Z M 87.707031 82.542969 " clip-rule="nonzero"/></clipPath><clipPath id="be04b29cf2"><path d="M 112.945312 82.542969 C 99.007812 82.542969 87.707031 87.363281 87.707031 93.3125 C 87.707031 99.257812 99.007812 104.082031 112.945312 104.082031 C 126.886719 104.082031 138.1875 99.257812 138.1875 93.3125 C 138.1875 87.363281 126.886719 82.542969 112.945312 82.542969 Z M 112.945312 82.542969 " clip-rule="nonzero"/></clipPath><clipPath id="8d2da59256"><path d="M 0.707031 0.542969 L 51.1875 0.542969 L 51.1875 22.082031 L 0.707031 22.082031 Z M 0.707031 0.542969 " clip-rule="nonzero"/></clipPath><clipPath id="44a1a4be1f"><path d="M 25.945312 0.542969 C 12.007812 0.542969 0.707031 5.363281 0.707031 11.3125 C 0.707031 17.257812 12.007812 22.082031 25.945312 22.082031 C 39.886719 22.082031 51.1875 17.257812 51.1875 11.3125 C 51.1875 5.363281 39.886719 0.542969 25.945312 0.542969 Z M 25.945312 0.542969 " clip-rule="nonzero"/></clipPath><clipPath id="e27cff36b0"><rect x="0" width="52" y="0" height="23"/></clipPath><clipPath id="9a1c03944f"><path d="M 85.476562 74.390625 L 140.882812 74.390625 L 140.882812 107 L 85.476562 107 Z M 85.476562 74.390625 " clip-rule="nonzero"/></clipPath><clipPath id="6c766918c6"><path d="M 113.042969 74.390625 C 97.820312 74.390625 85.476562 81.6875 85.476562 90.691406 C 85.476562 99.695312 97.820312 106.996094 113.042969 106.996094 C 128.265625 106.996094 140.609375 99.695312 140.609375 90.691406 C 140.609375 81.6875 128.265625 74.390625 113.042969 74.390625 Z M 113.042969 74.390625 " clip-rule="nonzero"/></clipPath><clipPath id="6f26c50de9"><path d="M 98 0.0585938 L 128 0.0585938 L 128 89 L 98 89 Z M 98 0.0585938 " clip-rule="nonzero"/></clipPath><clipPath id="e2f0978f30"><rect x="0" width="30" y="0" height="89"/></clipPath></defs><g clip-path="url(#e057e433a7)"><g clip-path="url(#5d1c751a96)"><g transform="matrix(1, 0, 0, 1, 92, 87)"><g clip-path="url(#e21777aec7)"><g clip-path="url(#3a3d18f8d1)"><g clip-path="url(#b1022df50e)"><path fill="#ffffff" d="M 0.363281 0.273438 L 41.527344 0.273438 L 41.527344 56.074219 L 0.363281 56.074219 Z M 0.363281 0.273438 " fill-opacity="1" fill-rule="nonzero"/></g></g></g></g></g></g><path stroke-linecap="butt" transform="matrix(0, 0.7496, -0.7496, 0, 101.345405, 97.91257)" fill="none" stroke-linejoin="miter" d="M 0.00199122 9.502067 L 60.273725 9.502067 " stroke="#ff751f" stroke-width="19" stroke-opacity="1" stroke-miterlimit="4"/><path stroke-linecap="butt" transform="matrix(0, 0.7496, -0.7496, 0, 139.958418, 97.727046)" fill="none" stroke-linejoin="miter" d="M -0.000644609 9.501709 L 60.521222 9.501709 " stroke="#ff751f" stroke-width="19" stroke-opacity="1" stroke-miterlimit="4"/><g transform="matrix(1, 0, 0, 1, 62, 78)"><g clip-path="url(#50d1016c9c)"><g fill="#171514" fill-opacity="1"><g transform="translate(0.824988, 60.342513)"><g><path d="M 13.53125 0.421875 C 9.28125 0.421875 6.21875 -0.65625 4.34375 -2.8125 C 2.46875 -4.96875 1.53125 -8.273438 1.53125 -12.734375 L 1.53125 -24.734375 C 1.53125 -28.085938 1.894531 -30.816406 2.625 -32.921875 C 3.351562 -35.023438 4.570312 -36.609375 6.28125 -37.671875 C 8 -38.734375 10.378906 -39.265625 13.421875 -39.265625 C 16.742188 -39.265625 19.445312 -38.394531 21.53125 -36.65625 C 23.625 -34.925781 24.671875 -32.503906 24.671875 -29.390625 L 24.671875 -23.453125 L 15.234375 -23.453125 L 15.234375 -28.921875 C 15.234375 -29.941406 15.085938 -30.726562 14.796875 -31.28125 C 14.515625 -31.832031 13.96875 -32.109375 13.15625 -32.109375 C 11.632812 -32.109375 10.875 -31.023438 10.875 -28.859375 L 10.875 -10.03125 C 10.875 -9.144531 11.054688 -8.390625 11.421875 -7.765625 C 11.796875 -7.148438 12.359375 -6.84375 13.109375 -6.84375 C 13.847656 -6.84375 14.398438 -7.144531 14.765625 -7.75 C 15.140625 -8.351562 15.3125 -9.128906 15.28125 -10.078125 L 15.234375 -16.609375 L 24.671875 -16.609375 L 24.671875 -9.8125 C 24.671875 -6.632812 23.632812 -4.132812 21.5625 -2.3125 C 19.5 -0.488281 16.820312 0.421875 13.53125 0.421875 Z M 13.53125 0.421875 "/></g></g></g></g></g><g clip-path="url(#357cc2f84d)"><g clip-path="url(#524b47a9b6)"><path stroke-linecap="butt" transform="matrix(0.7496, 0, 0, 0.7496, 85.477826, 87.277644)" fill="none" stroke-linejoin="miter" d="M 9.99844 -0.000400797 L 63.547834 -0.000400797 C 69.071614 -0.000400797 73.54796 4.475945 73.54796 9.999724 L 73.54796 68.692487 C 73.54796 74.216266 69.071614 78.692612 63.547834 78.692612 L 9.99844 78.692612 C 4.474661 78.692612 -0.00168521 74.216266 -0.00168521 68.692487 L -0.00168521 9.999724 C -0.00168521 4.475945 4.474661 -0.000400797 9.99844 -0.000400797 Z M 9.99844 -0.000400797 " stroke="#151515" stroke-width="8" stroke-opacity="1" stroke-miterlimit="4"/></g></g><g clip-path="url(#f4f55049bf)"><g clip-path="url(#5bc2251700)"><g transform="matrix(1, 0, 0, 1, 87, 76)"><g clip-path="url(#d2de43f1f8)"><g clip-path="url(#7384082452)"><g clip-path="url(#0c8c155804)"><path fill="#ffffff" d="M 0.707031 0.886719 L 50.015625 0.886719 L 50.015625 26.386719 L 0.707031 26.386719 Z M 0.707031 0.886719 " fill-opacity="1" fill-rule="nonzero"/></g></g></g></g></g></g><g clip-path="url(#11245c28f9)"><g clip-path="url(#be04b29cf2)"><g transform="matrix(1, 0, 0, 1, 87, 82)"><g clip-path="url(#e27cff36b0)"><g clip-path="url(#8d2da59256)"><g clip-path="url(#44a1a4be1f)"><path fill="#7a2f00" d="M 0.707031 0.542969 L 51.1875 0.542969 L 51.1875 22.082031 L 0.707031 22.082031 Z M 0.707031 0.542969 " fill-opacity="1" fill-rule="nonzero"/></g></g></g></g></g></g><g clip-path="url(#9a1c03944f)"><g clip-path="url(#6c766918c6)"><path stroke-linecap="butt" transform="matrix(0.7496, 0, 0, 0.7496, 85.477826, 74.389313)" fill="none" stroke-linejoin="miter" d="M 36.77314 0.00175008 C 16.465432 0.00175008 -0.00168521 9.736109 -0.00168521 21.747725 C -0.00168521 33.75934 16.465432 43.498911 36.77314 43.498911 C 57.080847 43.498911 73.547964 33.75934 73.547964 21.747725 C 73.547964 9.736109 57.080847 0.00175008 36.77314 0.00175008 Z M 36.77314 0.00175008 " stroke="#151515" stroke-width="10" stroke-opacity="1" stroke-miterlimit="4"/></g></g><path stroke-linecap="butt" transform="matrix(0.7496, 0, 0, 0.7496, 88.877699, 111.525729)" fill="none" stroke-linejoin="miter" d="M 0.00161025 7.000679 L 64.218156 7.000679 " stroke="#ff751f" stroke-width="14" stroke-opacity="1" stroke-miterlimit="4"/><g clip-path="url(#6f26c50de9)"><g transform="matrix(1, 0, 0, 1, 98, -0.000000000000003234)"><g clip-path="url(#e2f0978f30)"><g fill="#171514" fill-opacity="1"><g transform="translate(28.946608, 20.72748)"><g><path d="M -1.5625 36.15625 L -1.5625 44.671875 L -4.59375 51.84375 L -10.796875 51.84375 L -8.875 44.90625 L -12.609375 44.90625 L -12.609375 36.15625 Z M -15.390625 36.15625 L -15.390625 44.671875 L -18.40625 51.84375 L -24.625 51.84375 L -22.6875 44.90625 L -26.4375 44.90625 L -26.4375 36.15625 Z M -15.390625 36.15625 "/></g></g></g></g></g></g></svg>